<svg xmlns="http://www.w3.org/2000/svg" viewBox="0 0 24 24"><defs><style>.cls-1{fill:none;}</style></defs><g id="レイヤー_2" data-name="レイヤー 2"><g id="レイヤー_1-2" data-name="レイヤー 1"><g id="company"><rect class="cls-1" width="24" height="24"/><path d="M19,1H5A1.50164,1.50164,0,0,0,3.5,2.5v19A1.50164,1.50164,0,0,0,5,23H19a1.50164,1.50164,0,0,0,1.5-1.5V2.5A1.50164,1.50164,0,0,0,19,1ZM14,17v5H10V17h4v-.001l.5.001Zm5.5,4.5a.501.501,0,0,1-.5.5H15V17a1.00067,1.00067,0,0,0-1-1H10a1.00067,1.00067,0,0,0-1,1v5H5a.501.501,0,0,1-.5-.5V2.5A.501.501,0,0,1,5,2H19a.501.501,0,0,1,.5.5Z"/><path d="M12.59961,3.00293H11.40039A.90191.90191,0,0,0,10.5,3.90332v1.2002a.90107.90107,0,0,0,.90039.89941h1.19922A.90107.90107,0,0,0,13.5,5.10352V3.90332A.90191.90191,0,0,0,12.59961,3.00293Zm-.09961,2h-1v-1h1Z"/><path d="M12.59961,7H11.40039A.90191.90191,0,0,0,10.5,7.90039V9.09961A.90191.90191,0,0,0,11.40039,10h1.19922A.90191.90191,0,0,0,13.5,9.09961V7.90039A.90191.90191,0,0,0,12.59961,7ZM12.5,9h-1V8h1Z"/><path d="M12.59961,11H11.40039a.90191.90191,0,0,0-.90039.90039v1.19922A.90191.90191,0,0,0,11.40039,14h1.19922A.90191.90191,0,0,0,13.5,13.09961V11.90039A.90191.90191,0,0,0,12.59961,11ZM12.5,13h-1V12h1Z"/><path d="M17.09961,3.00293H15.90039A.90191.90191,0,0,0,15,3.90332v1.2002a.90107.90107,0,0,0,.90039.89941h1.19922A.90107.90107,0,0,0,18,5.10352V3.90332A.90191.90191,0,0,0,17.09961,3.00293Zm-.09961,2H16v-1h1Z"/><path d="M17.09961,7H15.90039A.90191.90191,0,0,0,15,7.90039V9.09961A.90191.90191,0,0,0,15.90039,10h1.19922A.90191.90191,0,0,0,18,9.09961V7.90039A.90191.90191,0,0,0,17.09961,7ZM17,9H16V8h1Z"/><path d="M17.09961,11H15.90039A.90191.90191,0,0,0,15,11.90039v1.19922A.90191.90191,0,0,0,15.90039,14h1.19922A.90191.90191,0,0,0,18,13.09961V11.90039A.90191.90191,0,0,0,17.09961,11ZM17,13H16V12h1Z"/><path d="M8.09961,3H6.90039A.90191.90191,0,0,0,6,3.90039V5.09961A.90191.90191,0,0,0,6.90039,6H8.09961A.90191.90191,0,0,0,9,5.09961V3.90039A.90191.90191,0,0,0,8.09961,3ZM8,5H7V4H8Z"/><path d="M8.09961,6.99707H6.90039A.90107.90107,0,0,0,6,7.89648v1.2002a.90191.90191,0,0,0,.90039.90039H8.09961A.90191.90191,0,0,0,9,9.09668V7.89648A.90107.90107,0,0,0,8.09961,6.99707ZM8,8.99707H7v-1H8Z"/><path d="M8.09961,10.99707H6.90039A.90107.90107,0,0,0,6,11.89648v1.2002a.90191.90191,0,0,0,.90039.90039H8.09961A.90191.90191,0,0,0,9,13.09668v-1.2002A.90107.90107,0,0,0,8.09961,10.99707Zm-.09961,2H7v-1H8Z"/></g></g></g></svg>
