<svg xmlns="http://www.w3.org/2000/svg" viewBox="0 0 24 24"><defs><style>.cls-1{fill:none;}</style></defs><g id="レイヤー_2" data-name="レイヤー 2"><g id="レイヤー_1-2" data-name="レイヤー 1"><g id="list"><rect class="cls-1" width="24" height="24"/><path d="M19.29,8.69a3.71,3.71,0,0,0,1.33-2.87A3.77,3.77,0,1,0,13.81,8a5.12,5.12,0,0,1,1.75,1.13.48.48,0,0,0,.27-.37.49.49,0,0,0-.26-.46A2.8,2.8,0,0,1,14,5.82a2.84,2.84,0,1,1,4.09,2.53.48.48,0,0,0-.25.46.46.46,0,0,0,.32.41c1.95.63,2.75,2.65,2.87,4.36H17a4.93,4.93,0,0,1-.26.93h4.84a.46.46,0,0,0,.47-.46A6,6,0,0,0,19.29,8.69Z"/><path d="M3,13.57C3,12.33,3.5,9.89,5.81,9.18a.49.49,0,0,0,.33-.41.47.47,0,0,0-.26-.46,2.85,2.85,0,1,1,2.56,0,.49.49,0,0,0-.26.46.46.46,0,0,0,.28.38A5,5,0,0,1,10.21,8a3.79,3.79,0,1,0-5.52.6C3,9.55,2,11.51,2,14a.47.47,0,0,0,.47.47H7.32a4.23,4.23,0,0,1-.27-.94Z"/><path d="M17,22H7a.5.5,0,0,1-.5-.5c0-2.7,1-4.77,2.86-5.75a4,4,0,1,1,5.25,0A6.38,6.38,0,0,1,17.5,21.5.5.5,0,0,1,17,22ZM7.52,21h9c-.13-1.83-1-4-3.06-4.66a.52.52,0,0,1-.35-.44.51.51,0,0,1,.28-.48,3,3,0,1,0-2.72,0,.51.51,0,0,1,.27.49.49.49,0,0,1-.35.44C8.09,17.08,7.6,19.68,7.52,21Z"/></g></g></g></svg>
