<svg xmlns="http://www.w3.org/2000/svg" viewBox="0 0 24 24"><defs><style>.cls-1{fill:none;}</style></defs><title></title><g id="レイヤー_2" data-name="レイヤー 2"><g id="レイヤー_1-2" data-name="レイヤー 1"><g id="employee"><rect class="cls-1" width="24" height="24"/><path d="M20.5,22.9751H3.5a.49972.49972,0,0,1-.5-.5c0-4.68164,1.9082-8.228,5.1582-9.71094a6.5004,6.5004,0,1,1,7.62891.03906C18.98535,14.3457,21,18.021,21,22.4751A.49972.49972,0,0,1,20.5,22.9751Zm-16.49219-1H19.98926c-.13574-3.29688-1.62305-7.34961-5.47364-8.60791a.49969.49969,0,0,1-.06835-.92237,5.49943,5.49943,0,1,0-4.93555-.02.50009.50009,0,0,1-.08008.92383C6.15332,14.35449,4.14844,17.56055,4.00781,21.9751Z"/></g></g></g></svg>
