<svg xmlns="http://www.w3.org/2000/svg" viewBox="0 0 24 24"><defs><style>.cls-1{fill:none;}</style></defs><g id="レイヤー_2" data-name="レイヤー 2"><g id="レイヤー_1-2" data-name="レイヤー 1"><g id="home"><rect class="cls-1" width="24" height="24"/><path d="M22.85352,12.9209l-10.5-10.5a.49983.49983,0,0,0-.707,0l-10.5,10.5a.49995.49995,0,0,0,.707.707L4,11.48145v9.793a.49971.49971,0,0,0,.5.5h15a.49971.49971,0,0,0,.5-.5v-9.793l2.14648,2.14648a.49995.49995,0,0,0,.707-.707ZM15,20.77441H9v-6h6Zm4,0H16v-6.5a.49972.49972,0,0,0-.5-.5h-7a.49972.49972,0,0,0-.5.5v6.5H5v-10.293l7-7,7,7Z"/></g></g></g></svg>
