<?xml version="1.0" encoding="utf-8"?>
<!-- Generator: Adobe Illustrator 24.0.1, SVG Export Plug-In . SVG Version: 6.00 Build 0)  -->
<svg version="1.1" id="_x32_0_x5F_クラウド社会保険"
	 xmlns="http://www.w3.org/2000/svg" xmlns:xlink="http://www.w3.org/1999/xlink" x="0px" y="0px" viewBox="0 0 282 22"
	 style="enable-background:new 0 0 282 22;" xml:space="preserve">
<style type="text/css">
	.st0{fill:#0054AC;}
	.st1{fill:#4A4A4A;}
</style>
<g id="クラウド社会保険_1_">
	<path id="MoneyForward_47_" class="st0" d="M37.8374672,2.4017336l2.0887032,14.3133907H37.189106l-1.1095238-8.6530409h-0.0365601
		l-3.1616058,8.8383474H31.938797l-3.0535049-8.8383474h-0.0357094l-1.2396221,8.6530409h-2.7370644l2.3481712-14.3133907h1.923811
		l3.4393539,9.1923246l3.2918854-9.1923246H37.8374672z M50.4521294,12.185565c0,2.8113451-1.9217415,4.8266821-4.7696457,4.8266821
		c-2.8481522,0-4.7708664-2.015337-4.7708664-4.8266821c0-2.8287125,1.9411163-4.8450866,4.7708664-4.8450866
		C48.511013,7.3404784,50.4521294,9.3568525,50.4521294,12.185565z M47.8280411,12.185565
		c0-1.2571716-0.8152046-2.5518799-2.1455574-2.5518799c-1.332428,0-2.1458054,1.2947083-2.1458054,2.5518799
		c0,1.2203655,0.8133774,2.5343294,2.1458054,2.5343294C47.0128365,14.7198944,47.8280411,13.4059305,47.8280411,12.185565z
		 M57.1133614,7.3404784c-0.9243393,0-1.831192,0.3144908-2.3666344,1.1278043h-0.0376587V7.635592h-2.5884438v9.0795326h2.5884438
		v-4.4919624c0-1.0921564,0.0193748-2.8113451,1.553257-2.8113451c1.460762,0,1.405735,1.405673,1.405735,2.4967937v4.8065138
		h2.588501v-5.5474358C60.2565613,9.0606422,59.5542145,7.3404784,57.1133614,7.3404784z M70.6212006,12.2781267v0.3144903
		h-5.9719162c0,1.1451712,0.4419098,2.4409761,1.7925568,2.4409761c0.850914,0,1.3873291-0.5181389,1.7385712-1.2388296
		l2.3858261,0.3877363c-0.628067,1.8129082-2.2189865,2.8297472-4.1243973,2.8297472
		c-2.8103676,0-4.5295563-1.997056-4.5295563-4.753437c0-2.7543707,1.4606361-4.9183316,4.4013519-4.9183316
		C69.2898712,7.3404784,70.6212006,9.5401478,70.6212006,12.2781267z M68.1804123,10.9834185
		c-0.1293106-0.9261065-0.7217331-1.8302145-1.7202301-1.8302145c-1.0351791,0-1.6092606,0.8875942-1.7375259,1.8302145H68.1804123z
		 M76.1291885,12.7971191L73.9641953,7.635592h-2.9396744l3.8648682,7.6961007l-2.9955597,6.2294321h2.8471146L81.3447113,7.635592
		H78.458168L76.1291885,12.7971191z M101.8601837,12.185565c0,2.8113451-1.9236908,4.8266821-4.7715988,4.8266821
		c-2.8490067,0-4.771843-2.015337-4.771843-4.8266821c0-2.8287125,1.9420929-4.8450866,4.771843-4.8450866
		C99.9172363,7.3404784,101.8601837,9.3568525,101.8601837,12.185565z M99.2341461,12.185565
		c0-1.2571716-0.8132553-2.5518799-2.1455612-2.5518799c-1.3314514,0-2.1458054,1.2947083-2.1458054,2.5518799
		c0,1.2203655,0.8143539,2.5343294,2.1458054,2.5343294C98.4208908,14.7198944,99.2341461,13.4059305,99.2341461,12.185565z
		 M105.9661026,8.5791864h-0.0367432V7.635592h-2.5894165v9.0795326h2.5894165v-4.0848484
		c0-1.4057331,0.1843262-2.9965906,1.978714-2.9965906c0.38694,0,0.757431,0.1100502,1.0728989,0.3328934l0.3144913-2.404232
		c-0.3337479-0.1292453-0.7033234-0.221868-1.0737534-0.221868C107.2598343,7.3404784,106.4841156,7.7851896,105.9661026,8.5791864z
		 M132.6040192,7.635592h2.5517578v9.0795326h-2.5517578v-0.8306808h-0.0366821
		c-0.5547028,0.7216053-1.5185242,1.1278038-2.4601746,1.1278038c-2.6637497,0-4.1794739-2.4244614-4.1794739-4.8817692
		c0-2.4051456,1.5351028-4.7899995,4.1418152-4.7899995c0.9435425,0,1.9054108,0.4060779,2.5345154,1.1470599V7.635592z
		 M132.8625793,12.1681366c0-1.2223768-0.831665-2.5344515-2.1630554-2.5344515
		c-1.332428,0-2.1456146,1.3120747-2.1456146,2.5344515c0,1.2185383,0.8131866,2.5517578,2.1456146,2.5517578
		C132.0309143,14.7198944,132.8625793,13.3866749,132.8625793,12.1681366z M139.923111,8.5791864h-0.0366821V7.635592h-2.5894165
		v9.0795326h2.5894165v-4.0848484c0-1.4057331,0.1862183-2.9965906,1.978775-2.9965906
		c0.3878021,0,0.7582855,0.1100502,1.0718689,0.3328934l0.3145447-2.404232
		c-0.3328247-0.1292453-0.7024689-0.221868-1.0728302-0.221868C141.2178192,7.3404784,140.4422302,7.7851896,139.923111,8.5791864z
		 M152.9518433,2.7722859v13.9428387h-2.5894165v-0.8499975h-0.0366211
		c-0.5374451,0.740922-1.4973145,1.1471205-2.4399414,1.1471205c-2.6636963,0-4.1803894-2.4244614-4.1803894-4.8817692
		c0-2.4051456,1.5350342-4.7899995,4.1427917-4.7899995c0.942627,0,1.9054108,0.4060779,2.4775391,1.1278043h0.0366211V2.7722859
		H152.9518433z M150.6219635,12.1681366c0-1.2223768-0.8142242-2.5344515-2.1456909-2.5344515
		c-1.3303528,0-2.1455536,1.3120747-2.1455536,2.5344515c0,1.2185383,0.8152008,2.5517578,2.1455536,2.5517578
		C149.8077393,14.7198944,150.6219635,13.3866749,150.6219635,12.1681366z M84.7440872,16.7151241h2.719635v-6.137845h3.938179
		V8.2087564h-3.938179V5.1398339h4.195816v-2.367548h-6.915451V16.7151241z M129.6531677,5.3737674
		c-0.0083008-0.0002437,0.2102814-2.5442626,0.2102814-2.5455422c-0.5289154,0.00195-1.0569305,0.0697107-1.5700684,0.1976764
		c-2.1684189,0.5406246-3.8619537,2.083708-5.0286942,3.9385407c-0.8572464,1.3628349-1.4902496,2.8566208-2.1592102,4.3167706
		c-0.0862808,0.1884146-0.1726303,0.3767672-0.2589111,0.5651817c-0.0571594,0.1246748-0.1367416,0.2823772-0.2265625,0.4520235
		l-2.0540314-4.9579396h-1.4374847l-2.1002808,5.0910239l-2.0048599-4.7959104h-2.8287125l4.177475,9.2648392h1.332428
		l2.1628647-5.5281792l1.9441605,5.5281792c0.4055939,0,1.3107986,0.0002441,1.3107986,0.0002441
		s0.0232162-0.0535641,0.034668-0.0773888c0.3729935-0.7759609,2.5495071-5.6421909,3.4143677-7.3320694
		c0.3754883-0.7336702,0.8922882-1.6045074,1.4171295-2.2314177C126.9421158,6.1205997,128.259613,5.3336105,129.6531677,5.3737674z
		 M16.0307999,11.7806835l3.1094799-5.0685816c0.3615646,1.0259686,0.5604877,2.1291676,0.5604877,3.2792187
		c0,5.4408293-4.4091749,9.8511992-9.8500032,9.8511992C4.4103699,19.8425198,0,15.4321499,0,9.9913206
		c0-5.440032,4.4103699-9.8503656,9.8507643-9.8503656c3.0532503,0,5.7815027,1.3895622,7.5889349,3.5705426l-2.7783661,4.5298901
		l-2.061388-2.9439754c-0.3261909-0.4654446-0.8850498-0.7078519-1.4475298-0.629427
		c-0.5620441,0.0796919-1.0325584,0.4679785-1.2165642,1.0054393l-1.361248,3.9772954L7.3748393,8.126792
		C7.0284443,7.6863666,6.4659648,7.474699,5.9153609,7.5757537C5.3643951,7.6781478,4.9149179,8.07621,4.7481112,8.6115713
		l-1.6821167,5.4030275c-0.2477663,0.7951117,0.196352,1.641058,0.9922249,1.8888607
		c0.1491737,0.0464897,0.2999034,0.0689745,0.4487152,0.0689745c0.6425714,0,1.2391934-0.4149714,1.440506-1.0608721
		l0.8303771-2.6645651l1.1410356,1.4492683c0.3422313,0.4342337,0.8931966,0.6470957,1.4388766,0.5537901
		c0.5447741-0.0923653,0.9950838-0.4757633,1.1742735-0.9988136l1.2975235-3.7920227l1.6784601,2.397934
		c0.2921925,0.4161663,0.7699108,0.6610727,1.2819176,0.6429691C15.2986164,12.4849873,15.7645321,12.2145548,16.0307999,11.7806835
		z M20.3732815,0c-1.0818367,0-1.9581966,0.876433-1.9581966,1.9578352c0,1.0805695,0.8763599,1.9574368,1.9581966,1.9574368
		c1.0806065,0,1.9570389-0.8768673,1.9570389-1.9574368C22.3303204,0.876433,21.4538879,0,20.3732815,0z"/>
	<g id="クラウド社会保険_2_">
		<g>
			<path class="st1" d="M223.8884277,10.7821655c-1.0281982-0.7879639-1.6455688-1.5186157-1.9523926-1.8804321
				c0.6615601-0.8599243,1.2191162-1.7694092,1.5994873-2.645813c0.0991821-0.2480469,0.1464233-0.4379272,0.1464233-0.6362915
				c0-0.6615601-0.5150146-1.0498047-1.2426147-1.0498047h-1.0186157V2.3149414h-1.850769v2.2548828h-2.262085v1.6451416h4.0897827
				c0.1486206,0,0.2313843,0.0370483,0.2313843,0.15271c0,0.0496216-0.0606079,0.0930176-0.09375,0.1591187
				c-0.6824341,1.2338867-1.7597046,2.460022-4.227417,4.4205322v2.1740112
				c1.6451416-1.2258301,1.9328003-1.5733643,2.329834-1.9372559c-0.0166626,0.2811279-0.067749,0.5784302-0.067749,0.8595581
				v5.276062h1.850769v-5.8548584c0-0.2644653,0.0475464-0.5124512,0.0308228-0.7771606
				c0.4464722,0.5456543,1.6143188,1.4552612,2.4368896,2.1246338V10.7821655z M207.0699463,2.5842896l-0.0001221-0.0082397
				l-2.1386108-0.0007324l-0.0001221,0.0089722v14.1117554h2.138855l0.0005493-6.7489014
				c2.3887939,0.6593628,4.97052,1.5782471,7.229126,2.5749512v-2.4996338
				c-2.3058472-0.9240723-4.7229004-1.7415771-7.2296753-2.4265747V2.5842896z M212.7424316,5.3994751h1.7650757V2.5753174
				h-1.7650757V5.3994751z M183.9989624,6.7106934h-10.4396362v1.9711914h9.5614014
				c0.4476929,0,0.6295166,0.1657715,0.6295166,0.4306641c0,0.0995483-0.0165405,0.1990967-0.0494995,0.2982788
				c-0.6986084,2.524231-2.9501953,4.6126099-7.1433105,5.18927v2.0959473
				c5.3488159-0.4873657,8.5388794-3.5442505,9.3463745-7.2852173c0.0662231-0.2982788,0.0997925-0.5962524,0.0997925-0.8449707
				c0-0.4140015-0.0831909-0.7453613-0.2652588-1.0267944C185.4069824,7.0089722,184.876709,6.7106934,183.9989624,6.7106934z
				 M199.2359619,4.6449585h-3.132019l0.0004883-2.0696411h-2.1369629L193.96698,4.6449585h-3.0527344
				c-1.375061,0-2.0707397,0.6627808-2.0707397,2.0043335v3.0809937h2.1039429V7.1960449
				c0-0.5135498,0.1659546-0.6792603,0.7455444-0.6792603h6.880249c0.546814,0,0.7454834,0.1657104,0.7454834,0.6461182v0.1159668
				c-0.0993652,1.921814-0.6463623,3.545166-1.7891846,4.8041992c-1.0481567,1.1734009-2.8082275,2.0461426-4.7449341,2.5169067
				l-0.0012817,2.0960693c2.1270752-0.3123169,4.4295044-1.322876,6.0881348-2.9731445
				c1.6585693-1.6502686,2.5014648-3.9922485,2.6338501-6.6260986c0-0.0664673,0.0001831-0.1491699,0-0.2156372
				C201.5005493,5.3973389,200.8926392,4.6449585,199.2359619,4.6449585z M168.7661133,3.7818604h-4.5921021
				c0.1611938-0.3865967,0.3096924-0.7893677,0.442627-1.206543h-2.303833
				c-0.3577271,0.982666-0.7767944,1.8336182-1.4785767,2.7719116c-0.5998535,0.802124-1.2736816,1.515686-1.9646606,2.0470581
				v2.6049805c1.4761353-0.9432373,2.6265869-2.0201416,3.5721436-3.2178955
				c0.2606812-0.3301392,0.5132446-0.6973877,0.7554932-1.0906372l4.6905518,0.0001221
				c0.4886475-0.0025024,0.6607056,0.1557007,0.6422119,0.4562378c-0.0059204,0.0964966-0.0177002,0.1742554-0.0336914,0.2701416
				c-0.8571167,3.9126587-3.6050415,6.8530273-7.897522,8.1188354v2.1599731h0.0020752
				c5.7640381-1.3283691,9.1819458-5.3928223,10.1759033-10.2109985c0.0508423-0.2703857,0.0844116-0.5068359,0.0844116-0.7433472
				C170.861145,4.5252075,170.1516113,3.7650757,168.7661133,3.7818604z M211.8597412,2.5753174h-1.7366943v2.8241577h1.7366943
				V2.5753174z M184.1616211,2.7770386h-9.2386475v1.9667969h9.2386475V2.7770386z M278.7791138,7.2956543
				c0.3359375,0,0.5273438,0,0.5273438,0v-0.961731c0.4921265,0.322876,0.8964844,0.5523071,1.1845703,0.7058716
				c0.2128296,0.1134033,0.5968018,0.3110352,1.2485962,0.6459351V5.7427979
				c-0.1466064-0.0778809-0.2265625-0.1148682-0.3843384-0.1912842c-1.4560547-0.7050781-2.7207031-1.6650391-3.7451172-2.8652344
				c-0.2724609-0.3359375-0.7363281-0.4960938-1.1845703-0.4960938c-0.4638672,0-0.9287109,0.1757812-1.2001953,0.5273438
				c-0.5458984,0.7124023-1.0757446,1.296875-1.6947021,1.8145142c-0.171814,0.1436768-0.8085938,0.6697998-1.5386963,1.0507202
				c-0.0093384,0.0048828-0.1728516,0.1067505-0.3834229,0.2350464V7.826355
				c0.4940186-0.3092041,0.9213867-0.5788574,1.2320557-0.7865601c0.3200073-0.2139893,0.6233521-0.427124,0.9277344-0.6536865
				v0.9095459c0,0,0.1767578,0,0.5449219,0h1.3125v0.9921875h-2.1289062c-0.9130859,0-1.3925781,0.4160156-1.3925781,1.265625
				v2.0322266c0,0.8642578,0.4794922,1.2646484,1.3925781,1.2646484h1.5039062
				c-0.2080078,0.4316406-0.4638672,0.8007812-0.7998047,1.1367188c-0.6884766,0.7197266-1.6650391,1.2480469-2.7050781,1.5683594
				c-0.1171265,0.0380859-0.2952881,0.0748291-0.4960938,0.1087646v1.7897949
				c0.4660034-0.0980835,0.7672729-0.1653442,1.1044922-0.2657471c1.2480469-0.4003906,2.3681641-1.0888672,3.2167969-1.96875
				c0.3681641-0.3847656,0.6728516-0.7851562,0.9121094-1.2490234c1.0732422,1.5849609,2.5136719,2.6259766,4.0341797,3.2177734
				c0.1279297,0.0478516,1.0400391,0.3809204,1.1679688,0.3809204v-1.8759155
				c-0.1721802-0.0640259-0.3066406-0.1140747-0.3681641-0.1378174c-1.5205078-0.5449219-2.8808594-1.4082031-3.7294922-2.7050781
				h2.0976562c0.9121094,0,1.3925781-0.4003906,1.3925781-1.2646484V9.5534668c0-0.8496094-0.4804688-1.265625-1.3925781-1.265625
				h-2.2578125V7.2956543H278.7791138z M275.536377,11.4733887h-1.4955444c-0.3203125,0-0.4003906-0.0644531-0.4003906-0.3671875
				V10.032959c0-0.2880859,0.0800781-0.3525391,0.4003906-0.3525391h1.5849609L275.536377,11.4733887z M278.8269653,9.6804199
				c0.3203125,0,0.4160156,0.0644531,0.4160156,0.3525391v1.0888672c0,0.2871094-0.0957031,0.3515625-0.4160156,0.3515625
				h-1.6650391V9.6804199H278.8269653z M274.4568481,5.822998c0.6884766-0.5917969,1.296875-1.2167969,1.7763672-1.8886719
				c0.0800781-0.0957031,0.1445312-0.1601562,0.2246094-0.1601562c0.0634766,0,0.1435547,0.0644531,0.2402344,0.1757812
				c0.5439453,0.65625,1.1845703,1.296875,1.9208984,1.8730469H274.4568481z M271.8318481,11.5856934
				c0-1.2490234-0.4003906-2.3369141-1.0722656-3.2978516c-0.0800781-0.1269531-0.1279297-0.2402344-0.1279297-0.3515625
				c0-0.0800781,0.015625-0.1601562,0.0634766-0.2402344c0.5126953-0.9921875,1.0410156-2.2402344,1.3291016-3.2011719
				c0.0800781-0.2402344,0.1113281-0.4804688,0.1113281-0.6884766c0-0.7519531-0.4638672-1.2324219-1.3125-1.2324219H268.47052
				c-0.9765625,0-1.4726562,0.4003906-1.4726562,1.4892578v13.2550049h1.7128906v-3.5401611
				c0.3359375,0.0644531,0.7998047,0.1123047,1.1523438,0.1123047
				C271.0154419,13.8903809,271.8318481,13.2819824,271.8318481,11.5856934z M270.2791138,4.494873
				c-0.2236328,0.9121094-0.6240234,1.9365234-1.1044922,2.8496094c-0.1279297,0.2402344-0.1923828,0.4794922-0.1923828,0.6875
				c0,0.2246094,0.0644531,0.4326172,0.2246094,0.6083984c0.65625,0.7841797,0.9599609,1.8095703,0.9599609,2.6572266
				c0,0.7841797-0.1757812,1.0078125-0.5439453,1.0078125h-0.0800781c-0.2236328-0.015625-0.5283203-0.0634766-0.8320312-0.1113281
				V4.526123c0-0.2714844,0.1123047-0.3671875,0.3681641-0.3671875h0.9599609
				c0.1767578,0.015625,0.2568359,0.0644531,0.2568359,0.1914062C270.2957153,4.3991699,270.2957153,4.4470215,270.2791138,4.494873
				z M261.1195068,11.1400146h3.7141113V9.4949951h-4.4401855V8.2744141h2.1016235
				c1.1000977,0,1.6263428-0.5101318,1.6263428-1.6099854V4.4765625c0-1.1001587-0.5262451-1.6102905-1.6263428-1.6102905
				h-5.6389771c-1.1159668,0-1.6419067,0.5101318-1.6419067,1.6102905v2.1878662
				c0,1.0998535,0.5259399,1.6099854,1.6419067,1.6099854h1.7888184v1.2205811h-4.3278809v1.6450195h3.5690918
				c-0.6430664,0.8408203-0.9399414,1.1724243-1.5834961,1.7495728c-0.6530151,0.5855713-1.1640015,0.9540405-1.3233032,1.0656738
				c-0.0700684,0.0491333-0.2079468,0.1447144-0.3884277,0.2615967c-0.1201782,0.0778198-0.3082275,0.1934814-0.5266113,0.321106
				v2.288208c0.6066895-0.3484497,1.56073-0.9259644,2.5025024-1.7920532
				c0.9627075-0.885437,1.4516602-1.4511719,2.1113281-2.5566406c-0.0166016,1.0224609-0.0332031,1.6162109-0.0332031,1.7480469
				v1.2587891c0,0.5449219,0,1.8339233,0,1.8339233h1.7485352c0,0,0-1.2890015,0-1.8173218V14.258728
				c0-0.4453125-0.0166016-1.2207031-0.0493164-1.7646484c0.6762695,1.0556641,1.1381836,1.5996094,1.9794922,2.3417969
				c0.6421509,0.59375,1.9394531,1.4871216,2.8260498,2.0464478v-2.4249268
				c-0.7938232-0.4003296-1.5759277-0.904541-2.2655029-1.5014038
				C262.1751709,12.3622437,261.8118896,11.9974365,261.1195068,11.1400146z M257.4139404,6.6485596
				c-0.3346558,0-0.4622192-0.079834-0.4622192-0.430542V4.8908081c0-0.3665771,0.1275635-0.4464111,0.4622192-0.4464111h4.4755249
				c0.3504639,0,0.4780273,0.079834,0.4780273,0.4464111v1.3272095c0,0.350708-0.1275635,0.430542-0.4780273,0.430542H257.4139404z
				 M254.9510498,2.3135376h-1.809082c0,0-0.0689697,0.2954712-0.1380615,0.5985107
				c-0.5889893,2.2333374-1.5849609,4.1621094-2.9775391,5.8574219c-0.03125,0.0432129-0.1022339,0.1278687-0.1866455,0.2337646
				v2.5924072c1.00177-0.8952026,1.5102539-1.6077271,1.6436768-1.7851562
				c0.1279297-0.1601562,0.2558594-0.3203125,0.3837891-0.5117188c-0.0634766,0.5439453-0.1113281,1.1035156-0.1113281,1.6484375
				v6.3710327h1.7119141V6.5614624c0.5126953-1.0888672,0.9443359-2.1767578,1.2324219-3.1855469
				C254.7324219,3.2792358,254.9510498,2.4092407,254.9510498,2.3135376z M234.3654175,11.5196533l4.0654907,0.0072632
				c-0.5296631,1.2008057-1.0668945,2.3052979-1.6350708,3.4072876c-0.5714722,0.0222778-1.007019,0.0238037-1.5777588,0.0349731
				v1.7561035c3.6604614-0.0645752,6.5525513-0.3317871,9.8361816-0.913208l-0.0224609-0.046936l0.6766968,1.1151733
				l2.1704102-0.0001831l-2.5778809-4.0776978l-2.0670776,0.0001221l0.90271,1.4874878
				c-1.8579712,0.2910156-3.6487427,0.4852905-5.265686,0.5795288c0.5328979-1.1146851,0.9888916-2.1022949,1.5147095-3.3426514
				l7.6741333-0.0059814V9.8869019l-13.694397-0.0013428V11.5196533z M229.029541,8.2713623h3.0846558V6.6262207h-3.0846558
				V2.3149414h-2.0564575v4.3112793h-2.8789673v1.6451416h2.8789673v6.7862549h-3.9072266v1.6451416h9.2539673v-1.6451416
				h-3.2902832V8.2713623z M242.4758911,2.4713745c-0.2919922-0.3204346-0.7780762-0.4806519-1.2645874-0.4806519
				s-0.9725342,0.1602173-1.2645874,0.4806519c-1.5648193,1.7871094-3.5426025,3.2359009-5.5812988,4.1950684v2.0587158h0.000061
				c0.8428955-0.4006958,2.1611328-1.1425781,2.9716187-1.6712036l0.4051514-0.2722778
				c1.2318726-0.8493652,2.3668213-1.8268433,3.2097168-2.852356c0.0809326-0.1119995,0.1781616-0.1599731,0.2593384-0.1599731
				s0.1784668,0.0479736,0.2593384,0.1599731c0.8428955,1.0255127,1.9778442,2.0029907,3.2097778,2.852356l0.4050903,0.2722778
				c0.8104248,0.5285645,2.1314087,1.2717896,2.9743042,1.6724854V6.6665039
				C246.0211792,5.7073975,244.0406494,4.2584229,242.4758911,2.4713745z M237.6326904,6.9265747v1.6164551h7.1572876V6.9265747
				H237.6326904z"/>
		</g>
	</g>
</g>
</svg>
