<svg xmlns="http://www.w3.org/2000/svg" viewBox="0 0 24 24"><defs><style>.cls-1{fill:none;}</style></defs><g id="レイヤー_2" data-name="レイヤー 2"><g id="レイヤー_1-2" data-name="レイヤー 1"><g id="setting"><rect class="cls-1" width="24" height="24"/><path d="M13.5,23h-3a.49993.49993,0,0,1-.49658-.44141l-.34278-2.916a7.91075,7.91075,0,0,1-1.41113-.584L5.94629,20.87793a.50192.50192,0,0,1-.66358-.03906l-2.12158-2.1211a.50007.50007,0,0,1-.03906-.66308L4.94092,15.75a7.946,7.946,0,0,1-.584-1.41016l-2.91552-.34375A.49914.49914,0,0,1,1,13.5v-3a.49914.49914,0,0,1,.44141-.49609l2.91552-.34375A7.94629,7.94629,0,0,1,4.94092,8.25L3.12207,5.94531a.50007.50007,0,0,1,.03906-.66308l2.12158-2.1211a.49978.49978,0,0,1,.66358-.03906L8.24951,4.94141a7.91075,7.91075,0,0,1,1.41113-.584l.34278-2.916A.49993.49993,0,0,1,10.5,1h3a.49993.49993,0,0,1,.49658.44141l.34278,2.916a7.91075,7.91075,0,0,1,1.41113.584l2.30322-1.81934a.49987.49987,0,0,1,.66358.03906l2.12158,2.1211a.50007.50007,0,0,1,.03906.66308L19.05908,8.25a7.94629,7.94629,0,0,1,.584,1.41016l2.91552.34375A.49914.49914,0,0,1,23,10.5v3a.49914.49914,0,0,1-.44141.49609l-2.91552.34375a7.946,7.946,0,0,1-.584,1.41016l1.81885,2.30469a.50007.50007,0,0,1-.03906.66308l-2.12158,2.1211a.50086.50086,0,0,1-.66358.03906l-2.30322-1.81934a7.91075,7.91075,0,0,1-1.41113.584l-.34278,2.916A.49993.49993,0,0,1,13.5,23Zm-2.55518-1h2.11036l.33007-2.80664a.50014.50014,0,0,1,.37159-.42578,6.87542,6.87542,0,0,0,1.78662-.73926.505.505,0,0,1,.56445.03809l2.2168,1.751,1.49267-1.49218-1.75049-2.21778a.49921.49921,0,0,1-.03808-.56347,6.93941,6.93941,0,0,0,.73974-1.78711.49773.49773,0,0,1,.4253-.3711L22,13.05566V10.94434l-2.80615-.33008a.49773.49773,0,0,1-.4253-.3711,6.93941,6.93941,0,0,0-.73974-1.78711.49921.49921,0,0,1,.03808-.56347L19.81738,5.6748,18.32471,4.18262l-2.2168,1.751a.50148.50148,0,0,1-.56445.03809,6.87542,6.87542,0,0,0-1.78662-.73926.50014.50014,0,0,1-.37159-.42578L13.05518,2H10.94482l-.33007,2.80664a.50014.50014,0,0,1-.37159.42578,6.87542,6.87542,0,0,0-1.78662.73926.50172.50172,0,0,1-.56445-.03809l-2.2168-1.751L4.18262,5.6748,5.93311,7.89258a.49921.49921,0,0,1,.03808.56347,6.93941,6.93941,0,0,0-.73974,1.78711.49773.49773,0,0,1-.4253.3711L2,10.94434v2.11132l2.80615.33008a.49773.49773,0,0,1,.4253.3711A6.93941,6.93941,0,0,0,5.97119,15.544a.49921.49921,0,0,1-.03808.56347L4.18262,18.3252l1.49267,1.49218,2.2168-1.751a.50521.50521,0,0,1,.56445-.03809,6.87542,6.87542,0,0,0,1.78662.73926.50014.50014,0,0,1,.37159.42578ZM12,16a4,4,0,1,1,4-4A4.00427,4.00427,0,0,1,12,16Zm0-7a3,3,0,1,0,3,3A3.00328,3.00328,0,0,0,12,9Z"/></g></g></g></svg>
